<?xml version="1.0" encoding="utf-8"?>
<svg version="1.1" id="Layer_1" xmlns="http://www.w3.org/2000/svg" xmlns:xlink="http://www.w3.org/1999/xlink" x="0px" y="0px"	height='60' width='60' viewBox="0 0 16 16" xml:space="preserve">
<path d="M15.4660034,7h-1.5490112c-0.2409668-1.420105-0.9846191-2.7061157-2.0951538-3.6234131
	C9.2660522,1.265686,5.4829712,1.6262207,3.3720093,4.1820068c-0.0072021,0.0081787-0.0140991,0.0165405-0.020752,0.0251465
	C3.1825562,4.4257812,3.2230835,4.7397461,3.4417114,4.9084473s0.5325928,0.1281738,0.7012939-0.0904541
	C5.0599976,3.7069702,6.447998,3,8,3c2.3760376,0.0003052,4.4240112,1.6721191,4.9000244,4h-1.3660278
	c-0.0584106,0-0.1149902,0.0205078-0.1599121,0.0579224C11.2680054,7.1463013,11.2536621,7.303894,11.34198,7.4099731
	l1.9660034,2.3600464c0.0096436,0.0115356,0.0203247,0.0222168,0.0319214,0.0318604
	c0.1060181,0.0884399,0.2636719,0.0741577,0.3521118-0.0318604L15.65802,7.4099731
	c0.0373535-0.0448608,0.0578613-0.1014404,0.0578613-0.1598511C15.7159424,7.1119995,15.6040649,7.000061,15.4660034,7z"/>
<path d="M11.8569946,11.1820068c-0.727417,0.8806763-1.734314,1.4859009-2.8533325,1.7150269
	C6.2972412,13.4511719,3.6541138,11.7063599,3.0999756,9h1.3660278c0.1380615-0.000061,0.249939-0.1119995,0.2498779-0.2501221
	c0-0.0584106-0.0205078-0.1149902-0.0578613-0.1598511L2.6920166,6.2299805
	C2.6035767,6.1239624,2.4459229,6.1096802,2.3399048,6.1981201C2.3283081,6.2077637,2.317627,6.2184448,2.3079834,6.2299805
	L0.34198,8.5900269C0.2536621,8.696106,0.2680054,8.8536987,0.3740845,8.9420776C0.4190063,8.9794922,0.4755859,9,0.5339966,9
	h1.5490112c0.2409668,1.420105,0.9846191,2.7061157,2.0951538,3.6234131
	c2.5557861,2.1109009,6.3388672,1.7503662,8.4498291-0.8054199c0.0072021-0.0081787,0.0140991-0.0165405,0.020752-0.0251465
	c0.1687012-0.2186279,0.1281738-0.5325928-0.0904541-0.7012939S12.0256958,10.9633789,11.8569946,11.1820068z"/>
</svg>
